<svg viewBox="0 0 20 20" xmlns="http://www.w3.org/2000/svg" xmlns:xlink="http://www.w3.org/1999/xlink" width="20.000000" height="20.000000" fill="none">
	<rect id="clarity:avatar-line" width="20.000000" height="20.000000" x="0.000000" y="0.000000" fill="rgb(255,255,255)" fill-opacity="0" />
	<path id="Vector" d="M10.0002 9.44428C10.7694 9.44428 11.5212 9.2162 12.1608 8.78889C12.8003 8.36157 13.2987 7.75421 13.5931 7.04361C13.8874 6.33301 13.9644 5.55108 13.8144 4.79671C13.6643 4.04234 13.2939 3.34941 12.7501 2.80553C12.2062 2.26166 11.5133 1.89128 10.7589 1.74123C10.0045 1.59118 9.2226 1.66819 8.512 1.96253C7.8014 2.25687 7.19404 2.75532 6.76672 3.39484C6.33941 4.03437 6.11133 4.78625 6.11133 5.5554C6.11133 6.58679 6.52105 7.57595 7.25036 8.30525C7.97967 9.03456 8.96882 9.44428 10.0002 9.44428ZM10.0002 2.77762C10.5496 2.77762 11.0867 2.94053 11.5435 3.24576C12.0003 3.55098 12.3563 3.98481 12.5665 4.49239C12.7768 4.99996 12.8318 5.55848 12.7246 6.09731C12.6174 6.63615 12.3529 7.1311 11.9644 7.51958C11.5759 7.90806 11.081 8.17262 10.5421 8.2798C10.0033 8.38698 9.44478 8.33197 8.93721 8.12173C8.42963 7.91148 7.99581 7.55545 7.69058 7.09865C7.38535 6.64184 7.22244 6.10479 7.22244 5.5554C7.22244 4.81868 7.5151 4.11214 8.03603 3.59121C8.55697 3.07027 9.2635 2.77762 10.0002 2.77762Z" fill="rgb(18,18,18)" fill-rule="nonzero" />
	<path id="Vector" d="M16.9273 13.5389C16.0364 12.5973 14.9628 11.8472 13.7721 11.3346C12.5814 10.822 11.2987 10.5576 10.0023 10.5576C8.70601 10.5576 7.42328 10.822 6.2326 11.3346C5.04192 11.8472 3.96829 12.5973 3.07735 13.5389C2.88419 13.7453 2.77691 14.0174 2.77735 14.3001L2.77735 17.2223C2.77735 17.517 2.89441 17.7996 3.10278 18.0079C3.31116 18.2163 3.59377 18.3334 3.88846 18.3334L16.1107 18.3334C16.4054 18.3334 16.688 18.2163 16.8964 18.0079C17.1047 17.7996 17.2218 17.517 17.2218 17.2223L17.2218 14.3001C17.2237 14.0182 17.1185 13.7461 16.9273 13.5389ZM16.1107 17.2223L3.88846 17.2223L3.88846 14.2945C4.67581 13.4654 5.62362 12.8052 6.67421 12.3541C7.7248 11.903 8.85621 11.6703 9.99957 11.6703C11.1429 11.6703 12.2743 11.903 13.3249 12.3541C14.3755 12.8052 15.3233 13.4654 16.1107 14.2945L16.1107 17.2223Z" fill="rgb(18,18,18)" fill-rule="nonzero" />
</svg>
